# XSI Wavefront OBJ Export v3.0
# File Created: Mon Aug 19 20:27:45 2013
# XSI Version: 7.5.203.0
mtllib Prop_Stick01_v04.mtl

o Prop_Stick01
# Hierarchy (from self to top father)
g Prop_Stick01

#begin 18 vertices
v -4.870870 0.000000 0.000000
v 56.892558 0.000000 0.000000
v -4.870870 1.000000 0.000000
v 56.892558 1.000000 0.000000
v -4.870870 0.707116 0.707105
v 56.892558 0.707116 0.707105
v -4.870870 0.000000 1.000000
v 56.892558 0.000000 1.000000
v -4.870870 -0.707100 0.707105
v 56.892558 -0.707100 0.707105
v -4.870870 -1.000000 0.000000
v 56.892558 -1.000000 0.000000
v -4.870870 -0.707100 -0.707107
v 56.892558 -0.707100 -0.707107
v -4.870870 0.000000 -1.000000
v 56.892558 0.000000 -1.000000
v -4.870870 0.707116 -0.707107
v 56.892558 0.707116 -0.707107
#end 18 vertices

#begin 80 normals
vn -1.000000 0.000000 0.000000
vn -1.000000 0.000000 0.000000
vn -1.000000 0.000000 0.000000
vn 0.000000 1.000000 0.000000
vn 0.000000 0.707110 0.707104
vn 0.000000 0.707110 0.707104
vn 0.000000 1.000000 0.000000
vn 1.000000 0.000000 0.000000
vn 1.000000 0.000000 0.000000
vn 1.000000 0.000000 0.000000
vn -1.000000 0.000000 0.000000
vn -1.000000 0.000000 0.000000
vn -1.000000 0.000000 0.000000
vn 0.000000 0.707110 0.707104
vn 0.000000 -0.000004 1.000000
vn 0.000000 -0.000004 1.000000
vn 0.000000 0.707110 0.707104
vn 1.000000 0.000000 0.000000
vn 1.000000 0.000000 0.000000
vn 1.000000 0.000000 0.000000
vn -1.000000 0.000000 0.000000
vn -1.000000 0.000000 0.000000
vn -1.000000 0.000000 0.000000
vn 0.000000 -0.000004 1.000000
vn 0.000000 -0.707106 0.707108
vn 0.000000 -0.707106 0.707108
vn 0.000000 -0.000004 1.000000
vn 1.000000 0.000000 0.000000
vn 1.000000 0.000000 0.000000
vn 1.000000 0.000000 0.000000
vn -1.000000 0.000000 0.000000
vn -1.000000 0.000000 0.000000
vn -1.000000 0.000000 0.000000
vn 0.000000 -0.707106 0.707108
vn 0.000000 -1.000000 0.000000
vn 0.000000 -1.000000 0.000000
vn 0.000000 -0.707106 0.707108
vn 1.000000 0.000000 0.000000
vn 1.000000 0.000000 0.000000
vn 1.000000 0.000000 0.000000
vn -1.000000 0.000000 0.000000
vn -1.000000 0.000000 0.000000
vn -1.000000 0.000000 0.000000
vn 0.000000 -1.000000 0.000000
vn 0.000000 -0.707105 -0.707108
vn 0.000000 -0.707105 -0.707108
vn 0.000000 -1.000000 0.000000
vn 1.000000 0.000000 0.000000
vn 1.000000 0.000000 0.000000
vn 1.000000 0.000000 0.000000
vn -1.000000 0.000000 0.000000
vn -1.000000 0.000000 0.000000
vn -1.000000 0.000000 0.000000
vn 0.000000 -0.707105 -0.707108
vn 0.000000 -0.000004 -1.000000
vn 0.000000 -0.000004 -1.000000
vn 0.000000 -0.707105 -0.707108
vn 1.000000 0.000000 0.000000
vn 1.000000 0.000000 0.000000
vn 1.000000 0.000000 0.000000
vn -1.000000 0.000000 0.000000
vn -1.000000 0.000000 0.000000
vn -1.000000 0.000000 0.000000
vn 0.000000 -0.000004 -1.000000
vn 0.000000 0.707109 -0.707105
vn 0.000000 0.707109 -0.707105
vn 0.000000 -0.000004 -1.000000
vn 1.000000 0.000000 0.000000
vn 1.000000 0.000000 0.000000
vn 1.000000 0.000000 0.000000
vn -1.000000 0.000000 0.000000
vn -1.000000 0.000000 0.000000
vn -1.000000 0.000000 0.000000
vn 0.000000 0.707109 -0.707105
vn 0.000000 1.000000 0.000000
vn 0.000000 1.000000 0.000000
vn 0.000000 0.707109 -0.707105
vn 1.000000 0.000000 0.000000
vn 1.000000 0.000000 0.000000
vn 1.000000 0.000000 0.000000
#end 80 vertex normals

#begin texture vertices
vt 0.418269 0.359398 0.000000
vt 0.361225 0.359398 0.000000
vt 0.392235 0.370182 0.000000
vt 0.749484 0.293584 0.000000
vt 0.336025 0.293584 0.000000
vt 0.335192 0.348614 0.000000
vt 0.749484 0.310395 0.000000
vt 0.407485 0.385432 0.000000
vt 0.749484 0.243152 0.000000
vt 0.350442 0.333364 0.000000
vt 0.336025 0.310395 0.000000
vt 0.336025 0.243152 0.000000
vt 0.749484 0.259962 0.000000
vt 0.429053 0.385432 0.000000
vt 0.372009 0.333364 0.000000
vt 0.336025 0.259962 0.000000
vt 0.749484 0.276773 0.000000
vt 0.444303 0.370182 0.000000
vt 0.387259 0.348614 0.000000
vt 0.336025 0.276773 0.000000
vt 0.749484 0.293584 0.000000
vt 0.444303 0.348614 0.000000
vt 0.387259 0.370182 0.000000
vt 0.336025 0.293584 0.000000
vt 0.749484 0.310394 0.000000
vt 0.429052 0.333364 0.000000
vt 0.749484 0.243152 0.000000
vt 0.372009 0.385432 0.000000
vt 0.336025 0.310394 0.000000
vt 0.336025 0.243152 0.000000
vt 0.749484 0.259962 0.000000
vt 0.407485 0.333364 0.000000
vt 0.350442 0.385432 0.000000
vt 0.336025 0.259962 0.000000
vt 0.749484 0.276773 0.000000
vt 0.392234 0.348614 0.000000
vt 0.335191 0.370182 0.000000
vt 0.336025 0.276773 0.000000
#end 38 texture vertices

#begin 24 faces
usemtl material3
f 5/8/1 3/3/2 1/1/3 
usemtl material3
f 3/4/4 5/7/5 6/11/6 4/5/7 
usemtl material3
f 4/6/8 6/10/9 2/2/10 
usemtl material3
f 7/14/11 5/8/12 1/1/13 
usemtl material3
f 5/9/14 7/13/15 8/16/16 6/12/17 
usemtl material3
f 6/10/18 8/15/19 2/2/20 
usemtl material3
f 9/18/21 7/14/22 1/1/23 
usemtl material3
f 7/13/24 9/17/25 10/20/26 8/16/27 
usemtl material3
f 8/15/28 10/19/29 2/2/30 
usemtl material3
f 11/22/31 9/18/32 1/1/33 
usemtl material3
f 9/17/34 11/21/35 12/24/36 10/20/37 
usemtl material3
f 10/19/38 12/23/39 2/2/40 
usemtl material3
f 13/26/41 11/22/42 1/1/43 
usemtl material3
f 11/21/44 13/25/45 14/29/46 12/24/47 
usemtl material3
f 12/23/48 14/28/49 2/2/50 
usemtl material3
f 15/32/51 13/26/52 1/1/53 
usemtl material3
f 13/27/54 15/31/55 16/34/56 14/30/57 
usemtl material3
f 14/28/58 16/33/59 2/2/60 
usemtl material3
f 17/36/61 15/32/62 1/1/63 
usemtl material3
f 15/31/64 17/35/65 18/38/66 16/34/67 
usemtl material3
f 16/33/68 18/37/69 2/2/70 
usemtl material3
f 3/3/71 17/36/72 1/1/73 
usemtl material3
f 17/35/74 3/4/75 4/5/76 18/38/77 
usemtl material3
f 18/37/78 4/6/79 2/2/80 
#end 24 faces
